<?xml version="1.0" encoding="utf-8"?>
<!-- Generator: Adobe Illustrator 24.3.0, SVG Export Plug-In . SVG Version: 6.00 Build 0)  -->
<svg version="1.1" id="Layer_1" xmlns="http://www.w3.org/2000/svg" xmlns:xlink="http://www.w3.org/1999/xlink" x="0px" y="0px"
	 viewBox="0 0 320 103.6" style="enable-background:new 0 0 320 103.6;" xml:space="preserve">
<style type="text/css">
	.st0{fill:#FFFFFF;}
	.st1{font-family:'WorkSans-Bold';}
	.st2{font-size:18px;}
	.st3{fill:none;stroke:#000000;stroke-width:1.5;}
	.st4{enable-background:new    ;}
	.st5{fill:#A50026;}
	.st6{fill:#006837;}
</style>
<rect class="st0" width="320" height="95.4"/>
<g>
	<defs>
		<path id="SVGID_1_" d="M10,35h300c5.5,0,10,3.4,10,7.5l0,0c0,4.1-4.5,7.5-10,7.5H10c-5.5,0-10-3.4-10-7.5l0,0C0,38.4,4.5,35,10,35
			z"/>
	</defs>
	<clipPath id="SVGID_2_">
		<use xlink:href="#SVGID_1_"  style="overflow:visible;"/>
	</clipPath>
	<g style="clip-path:url(#SVGID_2_);enable-background:new    ;">
		
			<image style="overflow:visible;" width="256" height="1" xlink:href="1F7875F01CAB20E8.png"  transform="matrix(1.25 0 0 15 0 35)">
		</image>
	</g>
</g>
<text transform="matrix(1 0 0 1 0 20)" class="st1 st2">2016 Election Turnout Rates</text>
<line class="st3" x1="163.2" y1="29" x2="163.2" y2="56"/>
<g>
	<g class="st4">
		<path class="st5" d="M10.8,71.5l-8.6-4v-1.7l8.6-4.1v1.5l-7.4,3.4l7.4,3.4V71.5z"/>
		<path class="st5" d="M17.1,72.2c-1.1,0-2-0.2-2.8-0.7c-0.8-0.5-1.4-1.2-1.6-2.1l1.4-0.7c0.1,0.4,0.3,0.8,0.6,1.2s0.6,0.6,1,0.8
			c0.4,0.2,0.9,0.3,1.6,0.3c0.5,0,1-0.1,1.3-0.3c0.4-0.2,0.6-0.5,0.8-0.8s0.3-0.7,0.3-1.1c0-0.4-0.1-0.8-0.2-1.1
			c-0.2-0.3-0.4-0.5-0.8-0.6c-0.3-0.1-0.8-0.2-1.4-0.2c-0.1,0-0.3,0-0.4,0s-0.3,0-0.5,0v-1.4c0.1,0,0.2,0,0.3,0c0.1,0,0.2,0,0.3,0
			c0.9,0,1.5-0.2,1.9-0.5c0.4-0.3,0.6-0.9,0.6-1.6c0-0.6-0.2-1.1-0.6-1.4c-0.4-0.3-0.9-0.5-1.6-0.5c-0.8,0-1.3,0.2-1.7,0.5
			s-0.7,0.8-0.9,1.3l-1.4-0.6c0.2-0.5,0.5-0.9,0.9-1.3c0.4-0.4,0.8-0.7,1.4-0.9c0.5-0.2,1.1-0.3,1.8-0.3c0.8,0,1.5,0.1,2.1,0.4
			c0.5,0.3,0.9,0.7,1.2,1.1c0.3,0.5,0.4,1,0.4,1.5c0,0.4-0.1,0.8-0.2,1.2c-0.1,0.3-0.3,0.6-0.5,0.9s-0.4,0.5-0.7,0.6
			c-0.3,0.2-0.5,0.2-0.8,0.3v0c0.4,0,0.7,0.1,1.1,0.2c0.3,0.1,0.6,0.3,0.8,0.6c0.2,0.2,0.4,0.5,0.5,0.8c0.1,0.3,0.2,0.6,0.2,1
			c0,0.7-0.2,1.3-0.5,1.9s-0.8,1-1.4,1.3C18.6,72,17.9,72.2,17.1,72.2z"/>
		<path class="st5" d="M28,72.2c-1.3,0-2.4-0.5-3.2-1.6c-0.8-1-1.2-2.6-1.2-4.6c0-2,0.4-3.5,1.2-4.6c0.8-1,1.9-1.6,3.2-1.6
			c1.4,0,2.4,0.5,3.2,1.6c0.8,1,1.2,2.6,1.2,4.6c0,2-0.4,3.5-1.2,4.6C30.4,71.7,29.3,72.2,28,72.2z M28,70.9c0.6,0,1.2-0.2,1.6-0.5
			s0.8-0.9,1-1.6c0.2-0.7,0.3-1.6,0.3-2.6s-0.1-1.9-0.3-2.6c-0.2-0.7-0.6-1.3-1-1.6s-1-0.5-1.6-0.5c-0.6,0-1.2,0.2-1.6,0.5
			s-0.8,0.9-1,1.6C25.1,64.1,25,65,25,66.1s0.1,1.9,0.3,2.6c0.2,0.7,0.6,1.3,1,1.6S27.3,70.9,28,70.9z"/>
		<path class="st5" d="M37.1,59.9c0.6,0,1.1,0.1,1.5,0.4c0.4,0.3,0.8,0.7,1,1.1c0.2,0.5,0.4,1.1,0.4,1.7c0,0.7-0.1,1.2-0.4,1.7
			c-0.2,0.5-0.6,0.9-1,1.1c-0.4,0.3-0.9,0.4-1.5,0.4c-0.6,0-1.1-0.1-1.5-0.4c-0.4-0.3-0.8-0.7-1-1.1c-0.2-0.5-0.4-1.1-0.4-1.7
			c0-0.7,0.1-1.2,0.4-1.7c0.2-0.5,0.6-0.9,1-1.1C36.1,60.1,36.6,59.9,37.1,59.9z M37.1,61.1c-0.3,0-0.6,0.1-0.9,0.3
			c-0.2,0.2-0.4,0.4-0.5,0.7c-0.1,0.3-0.2,0.7-0.2,1.2c0,0.4,0.1,0.8,0.2,1.2c0.1,0.3,0.3,0.6,0.5,0.7c0.2,0.2,0.5,0.3,0.9,0.3
			c0.3,0,0.6-0.1,0.9-0.3s0.4-0.4,0.5-0.7s0.2-0.7,0.2-1.2c0-0.5-0.1-0.8-0.2-1.2c-0.1-0.3-0.3-0.6-0.5-0.7S37.5,61.1,37.1,61.1z
			 M36.8,72l7.6-11.9h1.4L38.2,72H36.8z M45.4,65.6c0.6,0,1.1,0.1,1.5,0.4c0.4,0.3,0.8,0.7,1,1.1c0.2,0.5,0.4,1.1,0.4,1.7
			s-0.1,1.2-0.4,1.7s-0.6,0.9-1,1.1c-0.4,0.3-0.9,0.4-1.5,0.4c-0.6,0-1.1-0.1-1.5-0.4c-0.4-0.3-0.8-0.7-1-1.1s-0.4-1.1-0.4-1.7
			s0.1-1.2,0.4-1.7c0.2-0.5,0.6-0.9,1-1.1C44.3,65.8,44.8,65.6,45.4,65.6z M45.4,66.8c-0.3,0-0.6,0.1-0.9,0.3
			c-0.2,0.2-0.4,0.4-0.5,0.7s-0.2,0.7-0.2,1.2c0,0.4,0.1,0.8,0.2,1.2c0.1,0.3,0.3,0.6,0.5,0.7s0.5,0.3,0.9,0.3
			c0.3,0,0.6-0.1,0.9-0.3c0.2-0.2,0.4-0.4,0.5-0.7c0.1-0.3,0.2-0.7,0.2-1.2c0-0.5-0.1-0.8-0.2-1.2c-0.1-0.3-0.3-0.6-0.5-0.7
			C46,66.8,45.7,66.8,45.4,66.8z"/>
	</g>
</g>
<g>
	<g class="st4">
		<path class="st6" d="M272.3,61.7l8.6,4.1v1.7l-8.6,4V70l7.4-3.4l-7.4-3.4V61.7z"/>
		<path class="st6" d="M287.7,60c0.8,0,1.4,0.1,2,0.4c0.6,0.3,1,0.6,1.3,1.1c0.3,0.5,0.5,1,0.5,1.7c0,0.6-0.1,1.1-0.4,1.6
			c-0.3,0.5-0.7,0.8-1.2,1.1v0c0.7,0.3,1.2,0.6,1.6,1.2c0.4,0.5,0.6,1.1,0.6,1.9c0,0.7-0.2,1.3-0.5,1.8s-0.9,0.9-1.5,1.2
			c-0.6,0.3-1.4,0.4-2.3,0.4c-0.9,0-1.6-0.1-2.3-0.4c-0.6-0.3-1.2-0.7-1.5-1.2c-0.4-0.5-0.5-1.1-0.5-1.8c0-0.7,0.2-1.4,0.6-1.9
			c0.4-0.5,0.9-0.9,1.6-1.2v0c-0.5-0.2-0.9-0.6-1.2-1c-0.3-0.5-0.5-1-0.5-1.6c0-0.6,0.2-1.2,0.5-1.7c0.3-0.5,0.8-0.8,1.3-1.1
			C286.3,60.1,286.9,60,287.7,60z M287.7,70.8c0.6,0,1.1-0.1,1.5-0.3c0.4-0.2,0.7-0.4,1-0.8c0.2-0.3,0.3-0.7,0.3-1.2
			c0-0.5-0.1-0.8-0.4-1.2c-0.2-0.3-0.6-0.6-1-0.8s-0.9-0.3-1.5-0.3c-0.6,0-1.1,0.1-1.5,0.3c-0.4,0.2-0.8,0.4-1,0.8
			c-0.2,0.3-0.4,0.7-0.4,1.2c0,0.4,0.1,0.8,0.3,1.2c0.2,0.3,0.6,0.6,1,0.8S287.1,70.8,287.7,70.8z M287.7,61.3
			c-0.7,0-1.3,0.2-1.7,0.5c-0.4,0.3-0.6,0.8-0.6,1.4c0,0.6,0.2,1.1,0.6,1.4c0.4,0.3,1,0.5,1.7,0.5c0.7,0,1.2-0.2,1.7-0.5
			c0.4-0.3,0.6-0.8,0.6-1.4c0-0.6-0.2-1.1-0.6-1.4C289,61.5,288.4,61.3,287.7,61.3z"/>
		<path class="st6" d="M298.8,72.2c-1.3,0-2.4-0.5-3.2-1.6c-0.8-1-1.2-2.6-1.2-4.6c0-2,0.4-3.5,1.2-4.6c0.8-1,1.9-1.6,3.2-1.6
			c1.4,0,2.4,0.5,3.2,1.6c0.8,1,1.2,2.6,1.2,4.6c0,2-0.4,3.5-1.2,4.6C301.3,71.7,300.2,72.2,298.8,72.2z M298.8,70.9
			c0.6,0,1.2-0.2,1.6-0.5c0.4-0.4,0.8-0.9,1-1.6c0.2-0.7,0.3-1.6,0.3-2.6s-0.1-1.9-0.3-2.6c-0.2-0.7-0.6-1.3-1-1.6
			c-0.4-0.4-1-0.5-1.6-0.5s-1.2,0.2-1.6,0.5c-0.4,0.4-0.8,0.9-1,1.6c-0.2,0.7-0.3,1.6-0.3,2.6s0.1,1.9,0.3,2.6
			c0.2,0.7,0.6,1.3,1,1.6C297.7,70.7,298.2,70.9,298.8,70.9z"/>
		<path class="st6" d="M308,59.9c0.6,0,1.1,0.1,1.5,0.4c0.4,0.3,0.8,0.7,1,1.1c0.2,0.5,0.4,1.1,0.4,1.7c0,0.7-0.1,1.2-0.4,1.7
			c-0.2,0.5-0.6,0.9-1,1.1c-0.4,0.3-0.9,0.4-1.5,0.4c-0.6,0-1.1-0.1-1.5-0.4c-0.4-0.3-0.8-0.7-1-1.1s-0.4-1.1-0.4-1.7
			c0-0.7,0.1-1.2,0.4-1.7s0.6-0.9,1-1.1C306.9,60.1,307.4,59.9,308,59.9z M308,61.1c-0.3,0-0.6,0.1-0.9,0.3
			c-0.2,0.2-0.4,0.4-0.5,0.7c-0.1,0.3-0.2,0.7-0.2,1.2c0,0.4,0.1,0.8,0.2,1.2c0.1,0.3,0.3,0.6,0.5,0.7c0.2,0.2,0.5,0.3,0.9,0.3
			c0.3,0,0.6-0.1,0.9-0.3c0.2-0.2,0.4-0.4,0.5-0.7s0.2-0.7,0.2-1.2c0-0.5-0.1-0.8-0.2-1.2c-0.1-0.3-0.3-0.6-0.5-0.7
			C308.7,61.2,308.4,61.1,308,61.1z M307.7,72l7.6-11.9h1.4L309,72H307.7z M316.3,65.6c0.6,0,1.1,0.1,1.5,0.4c0.4,0.3,0.8,0.7,1,1.1
			c0.2,0.5,0.4,1.1,0.4,1.7s-0.1,1.2-0.4,1.7c-0.2,0.5-0.6,0.9-1,1.1c-0.4,0.3-0.9,0.4-1.5,0.4c-0.6,0-1.1-0.1-1.5-0.4
			c-0.4-0.3-0.8-0.7-1-1.1c-0.2-0.5-0.4-1.1-0.4-1.7s0.1-1.2,0.4-1.7c0.2-0.5,0.6-0.9,1-1.1C315.2,65.8,315.7,65.6,316.3,65.6z
			 M316.3,66.8c-0.3,0-0.6,0.1-0.9,0.3c-0.2,0.2-0.4,0.4-0.5,0.7s-0.2,0.7-0.2,1.2c0,0.4,0.1,0.8,0.2,1.2c0.1,0.3,0.3,0.6,0.5,0.7
			s0.5,0.3,0.9,0.3c0.3,0,0.6-0.1,0.9-0.3s0.4-0.4,0.5-0.7c0.1-0.3,0.2-0.7,0.2-1.2c0-0.5-0.1-0.8-0.2-1.2c-0.1-0.3-0.3-0.6-0.5-0.7
			C316.9,66.8,316.6,66.8,316.3,66.8z"/>
	</g>
</g>
<g>
	<g class="st4">
		<path d="M146.1,72.2c-1.1,0-1.9-0.2-2.5-0.7c-0.6-0.5-1.1-1.1-1.5-2l1.4-0.7c0.2,0.6,0.5,1.1,0.9,1.5c0.4,0.4,1,0.6,1.8,0.6
			c0.6,0,1-0.1,1.4-0.3c0.4-0.2,0.7-0.5,0.9-0.9c0.2-0.4,0.3-0.8,0.3-1.4c0-0.6-0.1-1-0.3-1.4c-0.2-0.4-0.5-0.7-0.9-0.9
			c-0.4-0.2-0.8-0.3-1.4-0.3c-0.4,0-0.7,0-1.1,0.1c-0.3,0.1-0.6,0.2-0.9,0.4c-0.3,0.2-0.5,0.4-0.7,0.7l-1.3-0.2l0.7-6.5h6.7v1.3
			h-5.5l-0.5,3.7l0,0.2h0c0.3-0.3,0.7-0.5,1.1-0.7c0.5-0.2,1-0.3,1.6-0.3c0.8,0,1.4,0.2,2,0.5c0.6,0.3,1,0.8,1.3,1.3s0.5,1.2,0.5,2
			c0,0.6-0.1,1.2-0.3,1.7c-0.2,0.5-0.5,0.9-0.9,1.3s-0.8,0.6-1.3,0.8C147.2,72.1,146.7,72.2,146.1,72.2z"/>
		<path d="M156.5,72.2c-1.1,0-1.9-0.2-2.5-0.7c-0.6-0.5-1.1-1.1-1.5-2l1.4-0.7c0.2,0.6,0.5,1.1,0.9,1.5c0.4,0.4,1,0.6,1.8,0.6
			c0.6,0,1-0.1,1.4-0.3c0.4-0.2,0.7-0.5,0.9-0.9c0.2-0.4,0.3-0.8,0.3-1.4c0-0.6-0.1-1-0.3-1.4c-0.2-0.4-0.5-0.7-0.9-0.9
			c-0.4-0.2-0.8-0.3-1.4-0.3c-0.4,0-0.7,0-1.1,0.1c-0.3,0.1-0.6,0.2-0.9,0.4c-0.3,0.2-0.5,0.4-0.7,0.7l-1.3-0.2l0.7-6.5h6.7v1.3
			h-5.5l-0.5,3.7l0,0.2h0c0.3-0.3,0.7-0.5,1.1-0.7c0.5-0.2,1-0.3,1.6-0.3c0.8,0,1.4,0.2,2,0.5c0.6,0.3,1,0.8,1.3,1.3s0.5,1.2,0.5,2
			c0,0.6-0.1,1.2-0.3,1.7c-0.2,0.5-0.5,0.9-0.9,1.3s-0.8,0.6-1.3,0.8C157.7,72.1,157.2,72.2,156.5,72.2z"/>
		<path d="M164.3,69.8c0.3,0,0.6,0.1,0.8,0.3c0.2,0.2,0.3,0.5,0.3,0.8c0,0.3-0.1,0.6-0.3,0.8c-0.2,0.2-0.5,0.3-0.8,0.3
			s-0.6-0.1-0.8-0.3c-0.2-0.2-0.3-0.5-0.3-0.8c0-0.3,0.1-0.6,0.3-0.8S163.9,69.8,164.3,69.8z"/>
		<path d="M171.8,72.2c-1.1,0-1.9-0.2-2.5-0.7c-0.6-0.5-1.1-1.1-1.5-2l1.4-0.7c0.2,0.6,0.5,1.1,0.9,1.5c0.4,0.4,1,0.6,1.8,0.6
			c0.6,0,1-0.1,1.4-0.3s0.7-0.5,0.9-0.9s0.3-0.8,0.3-1.4c0-0.6-0.1-1-0.3-1.4c-0.2-0.4-0.5-0.7-0.9-0.9c-0.4-0.2-0.8-0.3-1.4-0.3
			c-0.4,0-0.7,0-1.1,0.1c-0.3,0.1-0.6,0.2-0.9,0.4c-0.3,0.2-0.5,0.4-0.7,0.7l-1.3-0.2l0.7-6.5h6.7v1.3H170l-0.5,3.7l0,0.2h0
			c0.3-0.3,0.7-0.5,1.1-0.7c0.5-0.2,1-0.3,1.6-0.3c0.8,0,1.4,0.2,2,0.5c0.6,0.3,1,0.8,1.3,1.3c0.3,0.6,0.5,1.2,0.5,2
			c0,0.6-0.1,1.2-0.3,1.7s-0.5,0.9-0.9,1.3s-0.8,0.6-1.3,0.8C173,72.1,172.4,72.2,171.8,72.2z"/>
		<path d="M180.7,59.9c0.6,0,1.1,0.1,1.5,0.4c0.4,0.3,0.8,0.7,1,1.1c0.2,0.5,0.4,1.1,0.4,1.7c0,0.7-0.1,1.2-0.4,1.7
			c-0.2,0.5-0.6,0.9-1,1.1c-0.4,0.3-0.9,0.4-1.5,0.4c-0.6,0-1.1-0.1-1.5-0.4c-0.4-0.3-0.8-0.7-1-1.1s-0.4-1.1-0.4-1.7
			c0-0.7,0.1-1.2,0.4-1.7s0.6-0.9,1-1.1C179.6,60.1,180.1,59.9,180.7,59.9z M180.7,61.1c-0.3,0-0.6,0.1-0.9,0.3
			c-0.2,0.2-0.4,0.4-0.5,0.7c-0.1,0.3-0.2,0.7-0.2,1.2c0,0.4,0.1,0.8,0.2,1.2c0.1,0.3,0.3,0.6,0.5,0.7c0.2,0.2,0.5,0.3,0.9,0.3
			c0.3,0,0.6-0.1,0.9-0.3c0.2-0.2,0.4-0.4,0.5-0.7s0.2-0.7,0.2-1.2c0-0.5-0.1-0.8-0.2-1.2c-0.1-0.3-0.3-0.6-0.5-0.7
			C181.3,61.2,181.1,61.1,180.7,61.1z M180.4,72l7.6-11.9h1.4L181.7,72H180.4z M188.9,65.6c0.6,0,1.1,0.1,1.5,0.4
			c0.4,0.3,0.8,0.7,1,1.1c0.2,0.5,0.4,1.1,0.4,1.7s-0.1,1.2-0.4,1.7c-0.2,0.5-0.6,0.9-1,1.1c-0.4,0.3-0.9,0.4-1.5,0.4
			c-0.6,0-1.1-0.1-1.5-0.4c-0.4-0.3-0.8-0.7-1-1.1c-0.2-0.5-0.4-1.1-0.4-1.7s0.1-1.2,0.4-1.7c0.2-0.5,0.6-0.9,1-1.1
			C187.9,65.8,188.4,65.6,188.9,65.6z M188.9,66.8c-0.3,0-0.6,0.1-0.9,0.3c-0.2,0.2-0.4,0.4-0.5,0.7s-0.2,0.7-0.2,1.2
			c0,0.4,0.1,0.8,0.2,1.2c0.1,0.3,0.3,0.6,0.5,0.7s0.5,0.3,0.9,0.3c0.3,0,0.6-0.1,0.9-0.3s0.4-0.4,0.5-0.7c0.1-0.3,0.2-0.7,0.2-1.2
			c0-0.5-0.1-0.8-0.2-1.2c-0.1-0.3-0.3-0.6-0.5-0.7C189.6,66.8,189.3,66.8,188.9,66.8z"/>
	</g>
</g>
<g>
	<g class="st4">
		<path d="M124,81v11.9h-1.8l-5-8l-1.3-2.2h0l0.1,1.8v8.4h-1.4V81h1.8l4.9,7.9l1.3,2.3h0l-0.1-1.8V81H124z"/>
		<path d="M132.9,87.1c0-0.7-0.2-1.2-0.5-1.6c-0.4-0.4-0.9-0.5-1.5-0.5c-0.6,0-1.2,0.1-1.6,0.4c-0.4,0.3-0.8,0.7-1,1.3l-1.2-0.7
			c0.2-0.7,0.7-1.2,1.3-1.6s1.5-0.6,2.4-0.6c0.6,0,1.2,0.1,1.8,0.3c0.5,0.2,0.9,0.6,1.3,1c0.3,0.5,0.5,1,0.5,1.7v4.4
			c0,0.4,0.2,0.6,0.7,0.6c0.2,0,0.4,0,0.7-0.1l-0.1,1.1c-0.2,0.1-0.6,0.2-0.9,0.2c-0.3,0-0.7-0.1-0.9-0.2s-0.5-0.3-0.6-0.6
			c-0.2-0.3-0.2-0.6-0.2-1V91l0.4,0.1c-0.1,0.5-0.4,0.8-0.7,1.1c-0.3,0.3-0.7,0.5-1.2,0.6c-0.4,0.1-0.9,0.2-1.3,0.2
			c-0.5,0-1-0.1-1.5-0.3s-0.8-0.5-1.1-0.8s-0.4-0.8-0.4-1.4c0-0.7,0.2-1.2,0.7-1.7c0.5-0.4,1.1-0.7,1.9-0.9l3.6-0.7v1.2l-2.9,0.6
			c-0.6,0.1-1,0.3-1.3,0.5s-0.4,0.5-0.4,0.9c0,0.4,0.1,0.7,0.4,0.9c0.3,0.2,0.7,0.4,1.3,0.4c0.3,0,0.7,0,1-0.1
			c0.3-0.1,0.6-0.2,0.9-0.4c0.3-0.2,0.4-0.4,0.6-0.7s0.2-0.6,0.2-1V87.1z"/>
		<path d="M143.2,83.9v1.2h-6.5v-1.2H143.2z M139.9,81.3v9.1c0,0.4,0.1,0.8,0.4,1c0.3,0.2,0.6,0.3,1,0.3c0.3,0,0.6-0.1,0.9-0.2
			s0.5-0.3,0.7-0.5l0.5,1.2c-0.3,0.3-0.6,0.5-1,0.6c-0.4,0.1-0.8,0.2-1.3,0.2c-0.5,0-0.9-0.1-1.3-0.2c-0.4-0.2-0.7-0.4-0.9-0.8
			c-0.2-0.4-0.4-0.8-0.4-1.4v-8.9L139.9,81.3z"/>
		<path d="M146.7,80.5l-0.5,4.4h-1.1v-4.4H146.7z"/>
		<path d="M150.9,79.7v10.9c0,0.5,0.1,0.8,0.3,0.9s0.4,0.3,0.8,0.3c0.2,0,0.4,0,0.6-0.1c0.2,0,0.4-0.1,0.6-0.2l-0.2,1.3
			c-0.2,0.1-0.4,0.1-0.6,0.2s-0.5,0.1-0.7,0.1c-0.7,0-1.3-0.2-1.6-0.6c-0.4-0.4-0.5-1-0.5-1.8V79.7H150.9z"/>
		<path d="M160,92.9l4.6-11.9h1.7l4.6,11.9h-1.5L166,84l-0.6-1.7h0l-0.5,1.6l-3.4,8.9H160z M162.3,89.6v-1.3h6.4v1.3H162.3z"/>
		<path d="M179,83.9h1.5l-3.7,9h-1.4l-3.7-9h1.6l2.8,7.5L179,83.9z"/>
		<path d="M186.2,93c-0.9,0-1.6-0.2-2.3-0.6s-1.2-0.9-1.6-1.6s-0.6-1.5-0.6-2.5s0.2-1.8,0.6-2.5s0.9-1.2,1.5-1.6
			c0.6-0.4,1.4-0.6,2.2-0.6c0.8,0,1.6,0.2,2.2,0.5c0.6,0.4,1,0.8,1.4,1.5c0.3,0.6,0.5,1.3,0.5,2.1c0,0.2,0,0.4,0,0.6s0,0.3-0.1,0.5
			h-7.3v-1.3h6.6l-0.7,0.1c0-0.9-0.2-1.5-0.7-2c-0.5-0.5-1.1-0.7-1.9-0.7c-0.6,0-1.1,0.1-1.5,0.4c-0.4,0.3-0.8,0.7-1,1.2
			s-0.4,1.1-0.4,1.8c0,0.7,0.1,1.3,0.4,1.8c0.2,0.5,0.6,0.9,1,1.2c0.4,0.3,1,0.4,1.6,0.4c0.7,0,1.2-0.1,1.6-0.4s0.7-0.6,1-1l1.1,0.7
			c-0.2,0.4-0.5,0.8-0.9,1.1c-0.4,0.3-0.8,0.5-1.2,0.7C187.3,93,186.8,93,186.2,93z"/>
		<path d="M192.8,92.9v-9h1.2l0.2,1.5c0.3-0.6,0.6-1,1.1-1.2c0.5-0.3,1.1-0.4,1.8-0.4c0.2,0,0.3,0,0.5,0c0.2,0,0.3,0.1,0.5,0.1
			l-0.3,1.3c-0.1,0-0.3-0.1-0.4-0.1s-0.4,0-0.7,0c-0.4,0-0.7,0.1-1.1,0.3s-0.7,0.5-0.9,1c-0.3,0.4-0.4,1-0.4,1.7v4.9H192.8z"/>
		<path d="M205.4,87.1c0-0.7-0.2-1.2-0.5-1.6S204,85,203.4,85c-0.6,0-1.2,0.1-1.6,0.4c-0.4,0.3-0.8,0.7-1,1.3l-1.2-0.7
			c0.2-0.7,0.7-1.2,1.3-1.6c0.6-0.4,1.5-0.6,2.4-0.6c0.6,0,1.2,0.1,1.8,0.3c0.5,0.2,0.9,0.6,1.3,1c0.3,0.5,0.5,1,0.5,1.7v4.4
			c0,0.4,0.2,0.6,0.7,0.6c0.2,0,0.5,0,0.7-0.1l-0.1,1.1c-0.2,0.1-0.6,0.2-0.9,0.2c-0.3,0-0.7-0.1-0.9-0.2c-0.3-0.1-0.5-0.3-0.6-0.6
			c-0.2-0.3-0.2-0.6-0.2-1V91l0.4,0.1c-0.1,0.5-0.4,0.8-0.7,1.1s-0.7,0.5-1.2,0.6S203,93,202.6,93c-0.5,0-1-0.1-1.5-0.3
			s-0.8-0.5-1.1-0.8c-0.3-0.4-0.4-0.8-0.4-1.4c0-0.7,0.2-1.2,0.7-1.7c0.5-0.4,1.1-0.7,1.9-0.9l3.6-0.7v1.2l-2.9,0.6
			c-0.6,0.1-1,0.3-1.3,0.5s-0.4,0.5-0.4,0.9c0,0.4,0.1,0.7,0.4,0.9c0.3,0.2,0.7,0.4,1.3,0.4c0.3,0,0.7,0,1-0.1s0.6-0.2,0.9-0.4
			c0.3-0.2,0.4-0.4,0.6-0.7c0.1-0.3,0.2-0.6,0.2-1V87.1z"/>
		<path d="M215.2,91.7c0.9,0,1.5,0.2,2,0.6c0.5,0.4,0.7,0.9,0.7,1.6c0,0.6-0.2,1.1-0.6,1.5c-0.4,0.4-0.9,0.8-1.6,1
			c-0.7,0.2-1.4,0.4-2.2,0.4c-1.4,0-2.5-0.2-3.2-0.7c-0.7-0.5-1.1-1.1-1.1-1.7c0-0.5,0.2-0.9,0.5-1.3c0.3-0.4,0.9-0.6,1.6-0.6
			l-0.1,0.3c-0.4-0.1-0.8-0.3-1-0.5c-0.3-0.3-0.4-0.6-0.4-1.1s0.2-0.9,0.5-1.3c0.4-0.4,0.9-0.6,1.6-0.7l1,0.5h-0.2
			c-0.6,0.1-1,0.2-1.3,0.4c-0.2,0.2-0.4,0.5-0.4,0.8c0,0.3,0.1,0.6,0.4,0.7c0.2,0.2,0.6,0.2,1,0.2H215.2z M213.4,83.7
			c0.7,0,1.4,0.1,1.9,0.4c0.6,0.3,1,0.6,1.3,1.1c0.3,0.5,0.5,1,0.5,1.6c0,0.6-0.2,1.1-0.5,1.6c-0.3,0.5-0.7,0.8-1.3,1.1
			c-0.6,0.3-1.2,0.4-1.9,0.4c-1.2,0-2.1-0.3-2.7-0.9c-0.6-0.6-1-1.3-1-2.2c0-0.6,0.2-1.1,0.5-1.6c0.3-0.5,0.8-0.8,1.3-1.1
			S212.7,83.7,213.4,83.7z M213.6,95.5c0.7,0,1.3-0.1,1.7-0.2c0.5-0.1,0.8-0.3,1-0.6c0.2-0.2,0.3-0.5,0.3-0.7c0-0.3-0.1-0.6-0.4-0.8
			c-0.3-0.2-0.7-0.3-1.4-0.3H212c-0.4,0-0.7,0.1-1,0.3c-0.3,0.2-0.4,0.5-0.4,0.8c0,0.4,0.3,0.8,0.8,1.1
			C211.9,95.4,212.7,95.5,213.6,95.5z M213.4,84.9c-0.6,0-1.1,0.2-1.6,0.5s-0.6,0.8-0.6,1.4c0,0.6,0.2,1,0.6,1.3
			c0.4,0.3,0.9,0.5,1.6,0.5s1.1-0.2,1.6-0.5c0.4-0.3,0.6-0.8,0.6-1.3c0-0.6-0.2-1-0.6-1.4S214.1,84.9,213.4,84.9z M217.9,82.2
			l0.3,1.3c0,0,0,0-0.1,0c0,0,0,0-0.1,0c-0.6,0-1,0.1-1.4,0.4c-0.3,0.2-0.5,0.6-0.5,1.1l-0.9-0.4c0-0.5,0.1-0.9,0.3-1.2
			c0.2-0.3,0.5-0.6,0.9-0.8C217,82.3,217.4,82.2,217.9,82.2C217.9,82.2,217.9,82.2,217.9,82.2C217.9,82.2,217.9,82.2,217.9,82.2z"/>
		<path d="M223.7,93c-0.9,0-1.6-0.2-2.3-0.6s-1.2-0.9-1.6-1.6s-0.6-1.5-0.6-2.5s0.2-1.8,0.6-2.5s0.9-1.2,1.5-1.6
			c0.6-0.4,1.4-0.6,2.2-0.6c0.8,0,1.6,0.2,2.2,0.5c0.6,0.4,1,0.8,1.4,1.5c0.3,0.6,0.5,1.3,0.5,2.1c0,0.2,0,0.4,0,0.6s0,0.3-0.1,0.5
			h-7.3v-1.3h6.6l-0.7,0.1c0-0.9-0.2-1.5-0.7-2c-0.5-0.5-1.1-0.7-1.9-0.7c-0.6,0-1.1,0.1-1.5,0.4c-0.4,0.3-0.8,0.7-1,1.2
			s-0.4,1.1-0.4,1.8c0,0.7,0.1,1.3,0.4,1.8c0.2,0.5,0.6,0.9,1,1.2c0.4,0.3,1,0.4,1.6,0.4c0.7,0,1.2-0.1,1.6-0.4s0.7-0.6,1-1l1.1,0.7
			c-0.2,0.4-0.5,0.8-0.9,1.1c-0.4,0.3-0.8,0.5-1.2,0.7C224.8,93,224.3,93,223.7,93z"/>
	</g>
</g>
</svg>
